<?xml version="1.0" encoding="utf-8"?>
<!-- Generator: Adobe Illustrator 21.0.0, SVG Export Plug-In . SVG Version: 6.00 Build 0)  -->
<svg version="1.1" id="Layer_1" xmlns="http://www.w3.org/2000/svg" xmlns:xlink="http://www.w3.org/1999/xlink" x="0px" y="0px"
	 viewBox="0 0 841.9 203.1" style="enable-background:new 0 0 841.9 203.1;" xml:space="preserve">
<style type="text/css">
	.st0{fill:#393892;}
	.st1{fill:#16A7DE;}
	.st2{fill:url(#SVGID_1_);}
</style>
<g>
	<g>
		<path class="st0" d="M55,14.9v24.3c-11.4,8.5-20.7,19.7-26.9,32.7v-57H55z"/>
		<path class="st0" d="M107,166.5c-31.5,0-57.1-25.6-57.1-57.1S75.5,52.2,107,52.2c14.3,0,27.4,5.3,37.5,14.1
			c10,8.8,17,20.9,19,34.7h22c-4.2-39.6-37.8-70.6-78.5-70.6c-43.5,0-79,35.4-79,79c0,43.5,35.4,79,79,79c40.7,0,74.3-31,78.5-70.6
			h-22C159.5,145.2,135.7,166.5,107,166.5z"/>
		<g>
			<g>
				<g>
					<path class="st1" d="M128.8,120c-0.3,0.6-0.3,1.4,0,2.4c0.7,2.5,1.6,5.8-0.8,7.6c-1.4,1-4.2,1.4-4.4,3.5
						c-0.2,1.7,1,3.2-1.1,4.3c-1.3,0.7-1.1,1.1-1.5,2.3c-0.5,1.3-1.5,2.3-2.5,3.3c-2.2,2.1-5.9,4.5-9.1,3.8
						c-2.3-0.5-2.5-3.3-3.2-5.2c-0.8-2.1-1.5-4.2-2.2-6.3c-0.6-1.8-1.9-3.3-2.3-5c-0.4-1.9,1.1-3.7,1.5-5.6c0.5-2.4-0.8-5.8-2.2-7.8
						c-0.9-1.3-1.9-2.1-1.8-3.8c0-1.4,1.4-4-0.5-4.7c-0.8-0.3-1.8-0.1-2.6-0.5c-0.9-0.3-1.5-1.2-2.4-1.4c-1.2-0.3-2.3,0.4-3.4,0.8
						c-1.6,0.6-3.4,0.3-5,0.7c-2.6,0.6-5.5-1.1-7.1-3.1c-0.7-0.9-1.3-2-2-3c-0.5-0.7-1.2-1.3-1.6-2c-0.9-1.4-0.2-3.1,0.4-4.6
						c0.9-2.3-0.2-4.5,1.4-6.7c2.2-3,5.2-5.4,7.5-8.3c0.8-1,1.9-2.5,3.2-2.9c1-0.3,2.2,0.1,3.2,0c2.3-0.1,4.7-0.6,7.1-0.9
						c0.7-0.1,3.4-0.7,3.9-0.2c0.4,0.5-0.3,2.7-0.4,3.4c0,0,4.8,2,5.1,2.1c0.6,0.2,2.1,0.9,2.8,0.6c1.4-0.7,0.4-1.8,2.4-1.7
						c3.1,0.2,6.1,0.8,9.3,0.9c0.7,0,1.5,0.1,1.8,0.8c0.3,0.5,0.2,1,0.1,1.5c-0.1,0.2-0.1,0.6-0.3,0.7c-0.1,0.2-0.4,0.2-0.4,0.5
						c0,0.4,0.2,0.7,0.4,1c1.6,2.7,3.1,5.4,4.6,8.1c0.5,0.8,0.9,1.5,1.4,2.3c1.1,1.8,3,3,5,3.7c2.2,0.7,20.7,0.2,20.7,0.2
						c-4-22.6-23.6-39.9-47.3-40c-26.5,0.2-48,21.8-48,48.4s21.5,48.2,48,48.4c23.7-0.2,43.4-17.4,47.3-40h-17
						C134.5,117.7,129.8,117.5,128.8,120z M137.7,125.9c0.2,0,0.4,0,0.7,0.1c-0.1,1.2,0.1,2.5-0.3,3.7c-1,2.8-2.3,5.5-3.3,8.3
						c-0.4,1.3-1.5,0.8-2.2,1.3c-0.4-0.6-0.8-1.1-1.1-1.8c-0.6-1.3-0.3-2.3,0.5-3.5c0.4-0.6,0.2-1.7,0.4-2.5c0.2-0.7,0.6-1.9,1-1.9
						c2.3-0.2,3-2,4.1-3.5C137.5,126,137.6,126,137.7,125.9z"/>
				</g>
			</g>
			<g>
				<g>
					<linearGradient id="SVGID_1_" gradientUnits="userSpaceOnUse" x1="58.6441" y1="109.3118" x2="153.9968" y2="109.3118">
						<stop  offset="0" style="stop-color:#3DDEED"/>
						<stop  offset="1" style="stop-color:#3DDEED;stop-opacity:0"/>
					</linearGradient>
					<path class="st2" d="M128.8,120c-0.3,0.6-0.3,1.4,0,2.4c0.7,2.5,1.6,5.8-0.8,7.6c-1.4,1-4.2,1.4-4.4,3.5
						c-0.2,1.7,1,3.2-1.1,4.3c-1.3,0.7-1.1,1.1-1.5,2.3c-0.5,1.3-1.5,2.3-2.5,3.3c-2.2,2.1-5.9,4.5-9.1,3.8
						c-2.3-0.5-2.5-3.3-3.2-5.2c-0.8-2.1-1.5-4.2-2.2-6.3c-0.6-1.8-1.9-3.3-2.3-5c-0.4-1.9,1.1-3.7,1.5-5.6c0.5-2.4-0.8-5.8-2.2-7.8
						c-0.9-1.3-1.9-2.1-1.8-3.8c0-1.4,1.4-4-0.5-4.7c-0.8-0.3-1.8-0.1-2.6-0.5c-0.9-0.3-1.5-1.2-2.4-1.4c-1.2-0.3-2.3,0.4-3.4,0.8
						c-1.6,0.6-3.4,0.3-5,0.7c-2.6,0.6-5.5-1.1-7.1-3.1c-0.7-0.9-1.3-2-2-3c-0.5-0.7-1.2-1.3-1.6-2c-0.9-1.4-0.2-3.1,0.4-4.6
						c0.9-2.3-0.2-4.5,1.4-6.7c2.2-3,5.2-5.4,7.5-8.3c0.8-1,1.9-2.5,3.2-2.9c1-0.3,2.2,0.1,3.2,0c2.3-0.1,4.7-0.6,7.1-0.9
						c0.7-0.1,3.4-0.7,3.9-0.2c0.4,0.5-0.3,2.7-0.4,3.4c0,0,4.8,2,5.1,2.1c0.6,0.2,2.1,0.9,2.8,0.6c1.4-0.7,0.4-1.8,2.4-1.7
						c3.1,0.2,6.1,0.8,9.3,0.9c0.7,0,1.5,0.1,1.8,0.8c0.3,0.5,0.2,1,0.1,1.5c-0.1,0.2-0.1,0.6-0.3,0.7c-0.1,0.2-0.4,0.2-0.4,0.5
						c0,0.4,0.2,0.7,0.4,1c1.6,2.7,3.1,5.4,4.6,8.1c0.5,0.8,0.9,1.5,1.4,2.3c1.1,1.8,3,3,5,3.7c2.2,0.7,20.7,0.2,20.7,0.2
						c-4-22.6-23.6-39.9-47.3-40c-26.5,0.2-48,21.8-48,48.4s21.5,48.2,48,48.4c23.7-0.2,43.4-17.4,47.3-40h-17
						C134.5,117.7,129.8,117.5,128.8,120z M137.7,125.9c0.2,0,0.4,0,0.7,0.1c-0.1,1.2,0.1,2.5-0.3,3.7c-1,2.8-2.3,5.5-3.3,8.3
						c-0.4,1.3-1.5,0.8-2.2,1.3c-0.4-0.6-0.8-1.1-1.1-1.8c-0.6-1.3-0.3-2.3,0.5-3.5c0.4-0.6,0.2-1.7,0.4-2.5c0.2-0.7,0.6-1.9,1-1.9
						c2.3-0.2,3-2,4.1-3.5C137.5,126,137.6,126,137.7,125.9z"/>
				</g>
			</g>
		</g>
	</g>
	<g>
		<g>
			<path class="st0" d="M247,102.3c-5,0-9.2-1.7-12.7-5.2c-3.5-3.5-5.2-8.1-5.2-13.9c0-5.8,1.9-10.4,5.6-13.8
				c3.7-3.4,8.2-5.1,13.4-5.1c6.5,0,12,2.7,16.4,8.2l8.6-9.8c-6.9-7.8-15.4-11.6-25.6-11.6c-9.1,0-16.9,3.1-23.2,9.2
				c-6.3,6.2-9.5,13.9-9.5,23.1s3.1,16.9,9.3,22.9c6.2,6,14.1,9.1,23.7,9.1c9.6,0,17.9-4,24.9-11.9l-8.9-9.2
				C259.4,99.6,253.8,102.3,247,102.3z"/>
			<path class="st0" d="M322.1,92.3c7.9-2.9,11.8-9.3,11.8-19.3c0-7.2-2.1-12.5-6.2-15.7c-4.1-3.3-11-4.9-20.7-4.9h-23.6v62.2h13.9
				V94.7h9.6l13.8,19.8h17.1L322.1,92.3z M317.2,80.4c-1.7,1.5-5,2.3-9.7,2.3h-10.1V64.3h10.4c4.5,0,7.6,0.6,9.3,1.9
				c1.8,1.2,2.7,3.5,2.7,6.9C319.8,76.4,318.9,78.9,317.2,80.4z"/>
			<path class="st0" d="M380.4,52.4h-13.4l-26.9,62.2h14.8l5.8-13.4h26.1l5.8,13.4h14.8L380.4,52.4z M365.9,89l7.8-18.1l7.7,18.1
				H365.9z"/>
			<path class="st0" d="M457.9,52.4v40l-30.5-40h-13v62.2h13.9v-39l29.6,39h13.9V52.4H457.9z"/>
			<path class="st0" d="M533.3,87.5c-2.3-2.6-5.4-4.4-9.2-5.2c1.1-0.5,1.8-0.8,2.2-1c0.4-0.2,1.2-0.7,2.2-1.6
				c3.1-2.4,4.7-6,4.7-10.9c0-4-1.4-7.6-4.2-10.8c-1.5-1.7-3.8-3.1-6.9-4.1c-3.1-1-6.7-1.5-10.9-1.5h-24.2v62.2h27.2
				c8.5,0,14.5-1.9,18-5.8c3-3.3,4.4-7.1,4.4-11.5C536.7,93.4,535.6,90.1,533.3,87.5z M501,64.2h6.7c4.1,0,7,0.4,8.7,1.3
				c1.7,0.9,2.6,2.7,2.6,5.5c0,2.8-0.9,4.6-2.8,5.4c-1.9,0.8-4.7,1.2-8.6,1.2H501V64.2z M519.4,101.4c-2,1-5,1.5-8.9,1.5H501V88.5
				h8.2c4.6,0,8,0.5,10.1,1.4c2.1,0.9,3.2,2.8,3.2,5.7C522.4,98.5,521.4,100.4,519.4,101.4z"/>
			<path class="st0" d="M586.9,92.3c7.9-2.9,11.8-9.3,11.8-19.3c0-7.2-2.1-12.5-6.2-15.7c-4.1-3.3-11-4.9-20.7-4.9h-23.6v62.2h13.9
				V94.7h9.6l13.8,19.8h17.1L586.9,92.3z M582.1,80.4c-1.7,1.5-4.9,2.3-9.7,2.3h-10.1V64.3h10.4c4.4,0,7.6,0.6,9.3,1.9
				c1.8,1.2,2.7,3.5,2.7,6.9C584.6,76.4,583.8,78.9,582.1,80.4z"/>
			<path class="st0" d="M664.7,60.2c-6.3-6.1-14-9.2-23.2-9.2s-16.9,3.1-23.2,9.2c-6.3,6.1-9.4,13.8-9.4,22.9
				c0,9.1,3.1,16.8,9.4,22.9c6.3,6.1,14,9.2,23.2,9.2s16.9-3.1,23.2-9.2c6.3-6.1,9.4-13.8,9.4-22.9C674.1,74,671,66.3,664.7,60.2z
				 M654.6,97.3c-3.5,3.9-7.9,5.8-13.1,5.8c-5.2,0-9.6-1.9-13.1-5.8c-3.6-3.9-5.3-8.6-5.3-14.1c0-5.5,1.8-10.3,5.3-14.2
				c3.5-3.9,7.9-5.9,13.1-5.9c5.2,0,9.6,2,13.1,5.9c3.6,3.9,5.3,8.6,5.3,14.2C660,88.7,658.2,93.4,654.6,97.3z"/>
			<path class="st0" d="M738.1,60.2c-6.3-6.1-14-9.2-23.2-9.2c-9.2,0-16.9,3.1-23.2,9.2c-6.3,6.1-9.4,13.8-9.4,22.9
				c0,9.1,3.1,16.8,9.4,22.9c6.3,6.1,14,9.2,23.2,9.2c9.2,0,16.9-3.1,23.2-9.2c6.3-6.1,9.4-13.8,9.4-22.9
				C747.6,74,744.4,66.3,738.1,60.2z M728.1,97.3c-3.6,3.9-7.9,5.8-13.1,5.8c-5.2,0-9.6-1.9-13.1-5.8c-3.6-3.9-5.3-8.6-5.3-14.1
				c0-5.5,1.8-10.3,5.3-14.2c3.6-3.9,7.9-5.9,13.1-5.9c5.2,0,9.6,2,13.1,5.9c3.5,3.9,5.3,8.6,5.3,14.2
				C733.4,88.7,731.6,93.4,728.1,97.3z"/>
			<path class="st0" d="M789.1,79.9l24.7-27.5h-17.2l-23.5,25.5V52.4h-13.9v62.2h13.9V97l6.2-6.9l18.2,24.5h16.2
				c-2.8-4-7.2-10-12.9-18.1C795.2,88.4,791.2,82.9,789.1,79.9z"/>
		</g>
		<g>
			<path class="st1" d="M234.7,141.7l-6,14.3h-3l-6-14.3v16.5h-5V132h6.7l5.8,14.4L233,132h6.7v26.2h-5V141.7z"/>
			<path class="st1" d="M259.3,158.2h-4.5v-2.4c-1.2,1.8-2.8,2.7-4.6,2.7c-1.8,0-3.3-0.6-4.6-1.9c-1.2-1.2-1.9-2.9-1.9-4.9
				c0-2.1,0.6-3.6,1.9-4.6c1.3-1,3-1.5,5.2-1.5h3.6v-0.1c0-2.1-1-3.2-2.9-3.2c-0.8,0-1.7,0.2-2.6,0.6c-0.9,0.4-1.7,0.9-2.3,1.4
				l-2.1-3.6c2.3-1.9,4.8-2.9,7.7-2.9c2.1,0,3.8,0.6,5.1,1.8c1.3,1.2,2,3.2,2,5.8V158.2z M254.5,150.6v-1h-3c-1.9,0-2.9,0.7-2.9,2.1
				c0,0.7,0.2,1.3,0.7,1.7c0.5,0.4,1.1,0.6,2,0.6c0.9,0,1.6-0.3,2.3-0.9C254.1,152.4,254.5,151.6,254.5,150.6z"/>
			<path class="st1" d="M268.5,147v11.2h-4.8v-20.2h4.8v2.2c1.4-1.7,3.1-2.6,4.9-2.6c1.8,0,3.3,0.8,4.6,2.3s1.8,3.5,1.8,6v12.3H275
				v-11.4c0-3.1-1-4.6-2.9-4.6c-1,0-1.8,0.4-2.5,1.2C268.8,144.2,268.5,145.4,268.5,147z"/>
			<path class="st1" d="M298.7,158.2h-4.5v-2.4c-1.2,1.8-2.8,2.7-4.6,2.7c-1.8,0-3.3-0.6-4.6-1.9c-1.2-1.2-1.9-2.9-1.9-4.9
				c0-2.1,0.6-3.6,1.9-4.6c1.3-1,3-1.5,5.2-1.5h3.6v-0.1c0-2.1-1-3.2-2.9-3.2c-0.8,0-1.7,0.2-2.6,0.6c-0.9,0.4-1.7,0.9-2.3,1.4
				l-2.1-3.6c2.3-1.9,4.8-2.9,7.7-2.9c2.1,0,3.8,0.6,5.1,1.8c1.3,1.2,2,3.2,2,5.8V158.2z M293.9,150.6v-1h-3c-1.9,0-2.9,0.7-2.9,2.1
				c0,0.7,0.2,1.3,0.7,1.7c0.5,0.4,1.1,0.6,2,0.6c0.9,0,1.6-0.3,2.3-0.9C293.5,152.4,293.9,151.6,293.9,150.6z"/>
			<path class="st1" d="M315.8,154.8c-1.5,2-3.4,3-5.6,3c-2.2,0-4.1-0.9-5.7-2.7c-1.5-1.8-2.3-4.2-2.3-7.2s0.8-5.4,2.4-7.3
				c1.6-1.9,3.4-2.9,5.4-2.9c2,0,3.7,1,5.1,3V138h4.8v17.6c0,1.8-0.3,3.4-0.8,4.8c-0.5,1.4-1.2,2.5-2.1,3.3
				c-1.8,1.6-3.9,2.5-6.3,2.5c-1.3,0-2.6-0.2-3.9-0.7s-2.5-1.2-3.5-2.1l1.9-4.2c1.6,1.4,3.2,2.1,5,2.1c1.8,0,3.1-0.5,4.2-1.5
				C315.3,158.7,315.8,157.1,315.8,154.8z M315.1,147.7c0-1.6-0.4-2.9-1.2-3.8c-0.8-0.9-1.7-1.4-2.8-1.4c-1.1,0-2.1,0.5-2.9,1.4
				c-0.8,0.9-1.2,2.2-1.2,3.8c0,1.6,0.4,2.9,1.2,3.9c0.8,1,1.8,1.5,2.9,1.5s2.1-0.5,2.9-1.5C314.7,150.6,315.1,149.3,315.1,147.7z"
				/>
			<path class="st1" d="M339.3,155.3c-1.9,2.2-4.2,3.2-6.8,3.2c-2.6,0-4.8-0.9-6.5-2.8c-1.7-1.9-2.6-4.4-2.6-7.6
				c0-3.2,0.9-5.7,2.6-7.6c1.7-1.9,3.8-2.8,6.1-2.8c2.4,0,4.4,0.8,6,2.5c1.6,1.7,2.5,4,2.5,6.9v3h-12.5c0.1,1.1,0.6,2,1.5,2.7
				c0.8,0.7,1.8,1,2.8,1c1.7,0,3.1-0.7,4.2-2L339.3,155.3z M334.7,143.4c-0.7-0.6-1.5-1-2.4-1c-0.9,0-1.8,0.3-2.6,1
				c-0.8,0.7-1.2,1.6-1.4,2.7h7.5C335.7,144.9,335.3,144,334.7,143.4z"/>
			<path class="st1" d="M359.9,147.4v10.9h-4.8v-11c0-1.6-0.2-2.8-0.6-3.5c-0.4-0.7-1.1-1.1-2-1.1c-0.9,0-1.7,0.4-2.5,1.2
				c-0.7,0.8-1.1,2-1.1,3.6v10.9h-4.8v-20.2h4.8v2.3c1.3-1.7,2.8-2.6,4.5-2.6c1.1,0,2.1,0.4,3,1.1c0.9,0.8,1.5,1.7,2,2.7
				c0.7-1.2,1.5-2.2,2.7-2.8c1.1-0.7,2.2-1,3.4-1c2,0,3.7,0.7,4.9,2.1c1.2,1.4,1.9,3.5,1.9,6.1v12.3h-4.8v-11c0-3.1-1-4.6-2.9-4.6
				c-1,0-1.8,0.4-2.5,1.2C360.3,144.6,359.9,145.8,359.9,147.4z"/>
			<path class="st1" d="M390.4,155.3c-1.9,2.2-4.2,3.2-6.8,3.2c-2.6,0-4.8-0.9-6.5-2.8c-1.7-1.9-2.6-4.4-2.6-7.6
				c0-3.2,0.9-5.7,2.6-7.6c1.7-1.9,3.8-2.8,6.1-2.8c2.4,0,4.4,0.8,6,2.5c1.6,1.7,2.5,4,2.5,6.9v3h-12.5c0.1,1.1,0.6,2,1.5,2.7
				c0.8,0.7,1.8,1,2.8,1c1.7,0,3.1-0.7,4.2-2L390.4,155.3z M385.8,143.4c-0.7-0.6-1.5-1-2.4-1c-0.9,0-1.8,0.3-2.6,1
				c-0.8,0.7-1.2,1.6-1.4,2.7h7.5C386.9,144.9,386.5,144,385.8,143.4z"/>
			<path class="st1" d="M400.1,147v11.2h-4.8v-20.2h4.8v2.2c1.4-1.7,3.1-2.6,4.9-2.6c1.8,0,3.3,0.8,4.6,2.3c1.2,1.5,1.8,3.5,1.8,6
				v12.3h-4.8v-11.4c0-3.1-1-4.6-2.9-4.6c-1,0-1.8,0.4-2.5,1.2C400.4,144.2,400.1,145.4,400.1,147z"/>
			<path class="st1" d="M421.1,142.1v9c0,0.8,0.2,1.4,0.5,1.8c0.3,0.4,0.7,0.7,1.2,0.7c0.9,0,1.7-0.5,2.3-1.4l1.8,3.9
				c-1.5,1.6-3.1,2.4-4.7,2.4c-1.7,0-3-0.6-4.2-1.9c-1.1-1.3-1.7-3-1.7-5.2v-9.3h-2v-4h2v-6h4.8v6h4.2v4H421.1z"/>
			<path class="st1" d="M455.5,135.5c2.1,2.3,3.2,5.5,3.2,9.5c0,4.1-1,7.3-3.1,9.7c-2.1,2.4-5.2,3.6-9.5,3.6h-7.6V132h7.9
				C450.3,132,453.3,133.2,455.5,135.5z M451.8,151c1.2-1.3,1.8-3.3,1.8-5.9c0-2.6-0.6-4.6-1.8-5.9c-1.2-1.4-3.1-2.1-5.6-2.1h-2.8
				v15.9h3.2C448.8,153.1,450.6,152.4,451.8,151z"/>
			<path class="st1" d="M477.4,155.3c-1.9,2.2-4.2,3.2-6.8,3.2c-2.6,0-4.8-0.9-6.5-2.8c-1.7-1.9-2.6-4.4-2.6-7.6
				c0-3.2,0.9-5.7,2.6-7.6c1.7-1.9,3.8-2.8,6.1-2.8c2.4,0,4.4,0.8,6,2.5c1.6,1.7,2.5,4,2.5,6.9v3h-12.5c0.1,1.1,0.6,2,1.5,2.7
				c0.8,0.7,1.8,1,2.8,1c1.7,0,3.1-0.7,4.2-2L477.4,155.3z M472.8,143.4c-0.7-0.6-1.5-1-2.4-1c-0.9,0-1.8,0.3-2.6,1
				c-0.8,0.7-1.2,1.6-1.4,2.7h7.5C473.8,144.9,473.4,144,472.8,143.4z"/>
			<path class="st1" d="M486.6,158.2l-6.8-20.2h5l4.3,12.7l4.3-12.7h5l-6.8,20.2H486.6z"/>
			<path class="st1" d="M515.6,155.3c-1.9,2.2-4.2,3.2-6.8,3.2c-2.6,0-4.8-0.9-6.5-2.8c-1.7-1.9-2.6-4.4-2.6-7.6
				c0-3.2,0.9-5.7,2.6-7.6c1.7-1.9,3.8-2.8,6.1-2.8c2.4,0,4.4,0.8,6,2.5c1.6,1.7,2.5,4,2.5,6.9v3h-12.5c0.1,1.1,0.6,2,1.5,2.7
				c0.8,0.7,1.8,1,2.8,1c1.7,0,3.1-0.7,4.2-2L515.6,155.3z M511,143.4c-0.7-0.6-1.5-1-2.4-1c-0.9,0-1.8,0.3-2.6,1
				c-0.8,0.7-1.2,1.6-1.4,2.7h7.5C512,144.9,511.7,144,511,143.4z"/>
			<path class="st1" d="M525.2,158.2h-4.8v-27.8h4.8V158.2z"/>
			<path class="st1" d="M547,148.2c0,2.9-0.9,5.4-2.6,7.4c-1.7,2-3.9,3-6.5,3c-2.6,0-4.8-1-6.5-3c-1.7-2-2.6-4.5-2.6-7.4
				c0-2.9,0.9-5.4,2.6-7.4c1.7-2,3.9-3,6.5-3c2.6,0,4.8,1,6.5,3C546.1,142.8,547,145.2,547,148.2z M533.6,148.2c0,1.6,0.4,3,1.2,4
				c0.8,1,1.8,1.6,3.1,1.6s2.3-0.5,3.1-1.6c0.8-1,1.2-2.4,1.2-4c0-1.6-0.4-3-1.2-4c-0.8-1.1-1.8-1.6-3.1-1.6s-2.3,0.5-3.1,1.6
				C534,145.2,533.6,146.5,533.6,148.2z"/>
			<path class="st1" d="M560.5,137.7c2,0,3.8,1,5.4,2.9c1.6,2,2.3,4.4,2.3,7.4s-0.8,5.5-2.3,7.5c-1.6,2-3.4,3-5.5,3
				c-2.1,0-3.8-1-5.1-3v9.9h-4.8v-27.4h4.8v2.2C556.8,138.6,558.5,137.7,560.5,137.7z M555.2,148.2c0,1.6,0.4,3,1.2,4
				c0.8,1,1.7,1.6,2.8,1.6c1.1,0,2.1-0.5,2.9-1.6c0.8-1,1.2-2.4,1.2-4c0-1.6-0.4-3-1.2-4.1c-0.8-1.1-1.8-1.7-2.9-1.7
				c-1.1,0-2.1,0.5-2.9,1.6C555.6,145.2,555.2,146.5,555.2,148.2z"/>
			<path class="st1" d="M587.6,147.4v10.9h-4.8v-11c0-1.6-0.2-2.8-0.6-3.5c-0.4-0.7-1.1-1.1-2-1.1c-0.9,0-1.7,0.4-2.5,1.2
				c-0.7,0.8-1.1,2-1.1,3.6v10.9h-4.8v-20.2h4.8v2.3c1.3-1.7,2.8-2.6,4.5-2.6c1.1,0,2.1,0.4,3,1.1c0.9,0.8,1.5,1.7,2,2.7
				c0.7-1.2,1.5-2.2,2.7-2.8s2.2-1,3.4-1c2,0,3.7,0.7,4.9,2.1c1.2,1.4,1.9,3.5,1.9,6.1v12.3H594v-11c0-3.1-1-4.6-2.9-4.6
				c-1,0-1.8,0.4-2.5,1.2C587.9,144.6,587.6,145.8,587.6,147.4z"/>
			<path class="st1" d="M618.1,155.3c-1.9,2.2-4.2,3.2-6.8,3.2c-2.6,0-4.8-0.9-6.5-2.8c-1.7-1.9-2.6-4.4-2.6-7.6
				c0-3.2,0.9-5.7,2.6-7.6c1.7-1.9,3.8-2.8,6.1-2.8c2.4,0,4.4,0.8,6,2.5c1.6,1.7,2.5,4,2.5,6.9v3H607c0.1,1.1,0.6,2,1.5,2.7
				c0.8,0.7,1.8,1,2.8,1c1.7,0,3.1-0.7,4.2-2L618.1,155.3z M613.5,143.4c-0.7-0.6-1.5-1-2.4-1c-0.9,0-1.8,0.3-2.6,1
				c-0.8,0.7-1.2,1.6-1.4,2.7h7.5C614.5,144.9,614.1,144,613.5,143.4z"/>
			<path class="st1" d="M627.7,147v11.2h-4.8v-20.2h4.8v2.2c1.4-1.7,3.1-2.6,4.9-2.6c1.8,0,3.3,0.8,4.6,2.3s1.8,3.5,1.8,6v12.3h-4.8
				v-11.4c0-3.1-1-4.6-2.9-4.6c-1,0-1.8,0.4-2.5,1.2C628.1,144.2,627.7,145.4,627.7,147z"/>
			<path class="st1" d="M648.8,142.1v9c0,0.8,0.2,1.4,0.5,1.8c0.3,0.4,0.7,0.7,1.2,0.7c0.9,0,1.7-0.5,2.3-1.4l1.8,3.9
				c-1.5,1.6-3.1,2.4-4.7,2.4c-1.7,0-3-0.6-4.2-1.9c-1.1-1.3-1.7-3-1.7-5.2v-9.3h-2v-4h2v-6h4.8v6h4.2v4H648.8z"/>
			<path class="st1" d="M671.3,137.3c-0.5,0.5-0.7,1.1-0.7,1.8c0,0.8,0.3,1.4,0.9,1.8c0.6,0.5,1.9,1,4.1,1.6
				c2.1,0.6,3.8,1.5,4.9,2.8c1.2,1.2,1.8,3,1.8,5.4c0,2.4-0.8,4.3-2.3,5.7c-1.5,1.5-3.5,2.2-5.9,2.2c-3.5,0-6.7-1.5-9.6-4.6l3-4.3
				c2.4,2.5,4.6,3.7,6.7,3.7c0.9,0,1.6-0.2,2.2-0.7c0.5-0.5,0.8-1.1,0.8-1.9c0-0.8-0.3-1.4-0.8-1.9c-0.6-0.5-1.6-0.9-3.3-1.4
				c-2.6-0.7-4.5-1.7-5.7-2.8c-1.2-1.2-1.8-3-1.8-5.5c0-2.5,0.8-4.4,2.3-5.8c1.5-1.3,3.4-2,5.7-2c1.5,0,3,0.3,4.5,0.9
				c1.5,0.6,2.8,1.4,3.9,2.5l-2.5,4.3c-1.9-1.7-3.9-2.6-6-2.6C672.4,136.6,671.8,136.8,671.3,137.3z"/>
			<path class="st1" d="M703,148.2c0,2.9-0.9,5.4-2.6,7.4c-1.7,2-3.9,3-6.5,3c-2.6,0-4.8-1-6.5-3c-1.7-2-2.6-4.5-2.6-7.4
				c0-2.9,0.9-5.4,2.6-7.4c1.7-2,3.9-3,6.5-3c2.6,0,4.8,1,6.5,3C702.1,142.8,703,145.2,703,148.2z M689.7,148.2c0,1.6,0.4,3,1.2,4
				c0.8,1,1.8,1.6,3.1,1.6s2.3-0.5,3.1-1.6c0.8-1,1.2-2.4,1.2-4c0-1.6-0.4-3-1.2-4c-0.8-1.1-1.8-1.6-3.1-1.6s-2.3,0.5-3.1,1.6
				C690,145.2,689.7,146.5,689.7,148.2z"/>
			<path class="st1" d="M711.3,158.2h-4.8v-27.8h4.8V158.2z"/>
			<path class="st1" d="M727,148.9v-10.9h4.8v20.2H727v-2.7c-1.2,2-2.7,3-4.6,3s-3.5-0.7-4.7-2.1c-1.3-1.4-1.9-3.4-1.9-6.2v-12.2
				h4.8v11c0,3.1,1,4.6,2.9,4.6c1,0,1.8-0.4,2.5-1.2C726.6,151.7,727,150.5,727,148.9z"/>
			<path class="st1" d="M742,142.1v9c0,0.8,0.2,1.4,0.5,1.8c0.3,0.4,0.7,0.7,1.2,0.7c0.9,0,1.7-0.5,2.3-1.4l1.8,3.9
				c-1.5,1.6-3.1,2.4-4.7,2.4c-1.7,0-3-0.6-4.2-1.9c-1.1-1.3-1.7-3-1.7-5.2v-9.3h-2v-4h2v-6h4.8v6h4.2v4H742z"/>
			<path class="st1" d="M750.8,135.5c-0.5-0.6-0.8-1.4-0.8-2.3c0-0.9,0.3-1.7,0.8-2.3c0.5-0.6,1.2-1,2-1c0.8,0,1.5,0.3,2,1
				c0.5,0.6,0.8,1.4,0.8,2.3c0,0.9-0.3,1.7-0.8,2.3c-0.5,0.6-1.2,1-2,1C752,136.5,751.3,136.1,750.8,135.5z M755.2,158.2h-4.8v-20.2
				h4.8V158.2z"/>
			<path class="st1" d="M776.9,148.2c0,2.9-0.9,5.4-2.6,7.4c-1.7,2-3.9,3-6.5,3c-2.6,0-4.8-1-6.5-3c-1.7-2-2.6-4.5-2.6-7.4
				c0-2.9,0.9-5.4,2.6-7.4c1.7-2,3.9-3,6.5-3c2.6,0,4.8,1,6.5,3C776,142.8,776.9,145.2,776.9,148.2z M763.5,148.2c0,1.6,0.4,3,1.2,4
				c0.8,1,1.8,1.6,3.1,1.6c1.2,0,2.3-0.5,3.1-1.6c0.8-1,1.2-2.4,1.2-4c0-1.6-0.4-3-1.2-4c-0.8-1.1-1.8-1.6-3.1-1.6
				c-1.2,0-2.3,0.5-3.1,1.6C763.9,145.2,763.5,146.5,763.5,148.2z"/>
			<path class="st1" d="M785.2,147v11.2h-4.8v-20.2h4.8v2.2c1.4-1.7,3.1-2.6,4.9-2.6c1.8,0,3.3,0.8,4.6,2.3c1.2,1.5,1.8,3.5,1.8,6
				v12.3h-4.8v-11.4c0-3.1-1-4.6-2.9-4.6c-1,0-1.8,0.4-2.5,1.2C785.6,144.2,785.2,145.4,785.2,147z"/>
			<path class="st1" d="M813.8,152c0,2-0.6,3.6-1.9,4.8c-1.2,1.2-2.8,1.8-4.7,1.8c-1.3,0-2.6-0.3-4-0.8c-1.4-0.5-2.6-1.3-3.7-2.4
				l2.1-3.5c1.8,1.6,3.7,2.4,5.7,2.4c0.6,0,1.1-0.1,1.5-0.4c0.4-0.3,0.5-0.7,0.5-1.1c0-0.5-0.3-0.9-0.8-1.3
				c-0.5-0.4-1.2-0.8-2.2-1.1c-0.9-0.3-1.7-0.7-2.2-0.9c-0.5-0.2-1.1-0.6-1.7-1.1c-1.3-0.9-1.9-2.4-1.9-4.2c0-1.9,0.6-3.4,1.9-4.6
				c1.3-1.2,2.9-1.8,5-1.8s4,0.8,6.1,2.4l-1.8,3.7c-1.5-1.2-3-1.8-4.5-1.8c-1.5,0-2.2,0.5-2.2,1.4c0,0.5,0.2,0.9,0.7,1.2
				s1.2,0.7,2.3,1.1c1.1,0.4,1.9,0.7,2.3,0.9c0.5,0.2,1,0.5,1.6,1C813.2,148.6,813.8,150,813.8,152z"/>
		</g>
	</g>
</g>
</svg>
